/* XPM */
static char *_83c0fa7c05b4ffef4350edb276b27bfStDcs2R9vWSuXzfT[] = {
/* columns rows colors chars-per-pixel */
"64 64 249 2 ",
"   c #0B0201",
".  c #0B0B0D",
"X  c #050508",
"o  c #130D0C",
"O  c #180A03",
"+  c #15110E",
"@  c #0D0D13",
"#  c #070A17",
"$  c #120E12",
"%  c #1C0F12",
"&  c #0D1218",
"*  c #141314",
"=  c #1B1514",
"-  c #15151B",
";  c #1A161B",
":  c #16191D",
">  c #1A1A1D",
",  c #1B1916",
"<  c #0C100F",
"1  c #261409",
"2  c #271A17",
"3  c #321E16",
"4  c #2E1508",
"5  c #28221C",
"6  c #392518",
"7  c #1C1C23",
"8  c #1C1D2B",
"9  c #161825",
"0  c #0C1424",
"q  c #221E24",
"w  c #241E28",
"e  c #1D222D",
"r  c #1D2124",
"t  c #1D2332",
"y  c #222125",
"u  c #23222C",
"i  c #2A2929",
"p  c #352925",
"a  c #3A332A",
"s  c #232432",
"d  c #252A36",
"f  c #2A2A33",
"g  c #282D3A",
"h  c #2C323D",
"j  c #2F3035",
"k  c #393639",
"l  c #342D33",
"z  c #462A19",
"x  c #4A2714",
"c  c #493529",
"v  c #563727",
"b  c #463A35",
"n  c #5A3D32",
"m  c #432D24",
"M  c #673B27",
"N  c #723E2F",
"B  c #542811",
"V  c #4C433B",
"C  c #474239",
"Z  c #584539",
"A  c #5F422F",
"S  c #6B422C",
"D  c #624433",
"F  c #6A4A38",
"G  c #794A37",
"H  c #76543D",
"J  c #704D38",
"K  c #333742",
"L  c #2A3040",
"P  c #423D43",
"I  c #3B424A",
"U  c #4B4743",
"Y  c #534C43",
"T  c #564B47",
"R  c #5C534C",
"E  c #585249",
"W  c #5C5552",
"Q  c #5D5A54",
"!  c #5B5958",
"~  c #504C51",
"^  c #66564A",
"/  c #745542",
"(  c #7D5A45",
")  c #7A5A48",
"_  c #635B54",
"`  c #645E5A",
"'  c #655A53",
"]  c #775E55",
"[  c #6A4D41",
"{  c #6C6256",
"}  c #64615C",
"|  c #6C635C",
" . c #6C695D",
".. c #72655B",
"X. c #776758",
"o. c #7D6450",
"O. c #615C63",
"+. c #646462",
"@. c #6B6562",
"#. c #6B6965",
"$. c #6B6B6A",
"%. c #736C64",
"&. c #7A6E65",
"*. c #746B67",
"=. c #74726C",
"-. c #7B736C",
";. c #797266",
":. c #757472",
">. c #797572",
",. c #7A7974",
"<. c #777978",
"1. c #6D7274",
"2. c #5F646A",
"3. c #85543D",
"4. c #814C3A",
"5. c #8B5B44",
"6. c #865A46",
"7. c #925C49",
"8. c #815C54",
"9. c #87624C",
"0. c #94634D",
"q. c #92664D",
"w. c #836454",
"e. c #886857",
"r. c #946B54",
"t. c #9B6C5B",
"y. c #976956",
"u. c #99725B",
"i. c #8D715C",
"p. c #A26D59",
"a. c #A3725C",
"s. c #A8765C",
"d. c #B57C5F",
"f. c #82756B",
"g. c #867668",
"h. c #997766",
"j. c #837C73",
"k. c #897C76",
"l. c #937C73",
"z. c #8E6C63",
"x. c #AC7A63",
"c. c #A87866",
"v. c #B37D67",
"b. c #AC7A75",
"n. c #8C847C",
"m. c #86827B",
"M. c #968779",
"N. c #97816E",
"B. c #AA836D",
"V. c #B9846B",
"C. c #A78977",
"Z. c #B88A77",
"A. c #B7917C",
"S. c #C58D76",
"D. c #C8927D",
"F. c #C4896C",
"G. c #797F82",
"H. c #837E82",
"J. c #7D8385",
"K. c #848583",
"L. c #8A8682",
"P. c #858B8B",
"I. c #898988",
"U. c #968C85",
"Y. c #95928D",
"T. c #9B948C",
"R. c #999087",
"E. c #8C9396",
"W. c #9C9D9C",
"Q. c #979896",
"!. c #888E91",
"~. c #A68D83",
"^. c #B98B83",
"/. c #A99788",
"(. c #BA9D8B",
"). c #B79786",
"_. c #A49B96",
"`. c #B69E93",
"'. c #9FA09B",
"]. c #BEA28D",
"[. c #A7A39D",
"{. c #B8A598",
"}. c #B7B09E",
"|. c #9CA4A5",
" X c #A5AAAB",
".X c #ABACAC",
"XX c #A6A6A6",
"oX c #B5ACA7",
"OX c #ADAEB1",
"+X c #A2AEB6",
"@X c #ADB2B3",
"#X c #ABB6BB",
"$X c #B2B2B3",
"%X c #B7B9BA",
"&X c #B1B1AD",
"*X c #9B9DA0",
"=X c #CB9B85",
"-X c #C79986",
";X c #D49C88",
":X c #C7918C",
">X c #C8A28D",
",X c #D2A38D",
"<X c #D0A88F",
"1X c #C6A796",
"2X c #D6A995",
"3X c #D5B29E",
"4X c #E1AD98",
"5X c #C8B4A9",
"6X c #C5BBB6",
"7X c #D3B4A3",
"8X c #E0B5A4",
"9X c #BBC0BC",
"0X c #CAC3BB",
"qX c #D8C9BB",
"wX c #ECC8BB",
"eX c #B1BDC1",
"rX c #BBC5CB",
"tX c #B8C3C8",
"yX c #BDCBD3",
"uX c #B7C8D0",
"iX c #BFD0D8",
"pX c #C4CBCD",
"aX c #C7C6C7",
"sX c #D5CBC6",
"dX c #C3CED3",
"fX c #C7CFD3",
"gX c #C5D1D5",
"hX c #CBD3D6",
"jX c #C5D3DA",
"kX c #CAD6DC",
"lX c #CED9DD",
"zX c #D2DADD",
"xX c #D6D6D7",
"cX c #D4CFD0",
"vX c #E6DACE",
"bX c #F1E6D3",
"nX c #CDDBE2",
"mX c #C9D7E0",
"MX c #D3DDE3",
"NX c #D4DFE5",
"BX c #DBE2E4",
"VX c #DBE6EB",
"CX c #D6E3E9",
"ZX c #DDEAF3",
"AX c #E2E8EC",
"SX c #FDF8E9",
"DX c #E9F4F8",
"FX c #F5FFFF",
"GX c #E9EBEC",
/* pixels */
"E W } | | | | @.&...X.g.M./.M.X.g.g.g.g.g.f.f.j.&.n.%.b a C } L.Y.,.Y.Y.L.L.m.T.T.Y.U.[.0XqXoX_._.XXY.} ` I..XXX.X.X.X.X.X.X XXX",
"Y E _ } | | | ..` ..X.{.bXbXqXN.X.&.f.f.f.f.f.;.j.j.;.T a k } j.L.k.L.U.Y.Q.T.Y.Y.T.Q.R.R.T._.[.[.Y.:.#.,.W..X.X$X&X.X.X.X.X.X.X",
"Y T R _ ` | | | { &.{ }.SXSXbXM.f.f.f.f.-.-.f.j.n.-.,.} p i #.U.n.U.n.n.n.n.Y.L.L.U.R.R.U.T._.Y._.,.} >.Q..X.X.X$X.X.X.XOX@XOX.X",
"E E E R _ | | @.@.;.{ m.{.}./.X.;.;.;.-.-.-.,.j.j.j.m.| i 2 Y -.n.U.j.M./.U._.R.[.T.R.T.T.[.[.Q.Y.=.*.I..X&X.X.X.X.X.XOX$XOX XXX",
"_ R E E W ` | @.| | ;.| X.&.^ X.-.*.*.-.,.>.;.=.-.m.*.b 5 % 1 p ^ [ m ^ k.k.R./.M.n.R._._._.Q.Y.:.,.I.[..X.X.X$X.X.XOX$X@X XW.E.",
"} _ R R R _ ` | &.| -.' { ;.X.}.6X_.j.-.-.-.-.-.k.;.b 1 5 p 3 p n m 1 4 z 6 ^ M._.oX[._.[.[.I.K.#.I.XX.X.X.X$X$X.XOX$XOX XQ.P.J.",
"_ _ _ _ W R _ ` ;.| %.{ X.;.M.bXSX0XU.;.;.-.f.k.g.T 6 3 n ) o.w.e.e.[ v c z z X.sXSXvX_.Q.W.I.<.:.Y..X.XXX.X.X.X X X X*XE.P.J.J.",
"R _ ` ` _ R W _ ` %.| ;.;.^ n.vXSX6XM.-.f.g.g.g.Z z c ) i.c.Z.B.A.A.A.C.C.z.z z Z sXGX&X'.W.<.$.!.W..XXXXX.XXX|.|.|.Q.P.G.<.G.P.",
"b T _ ` @.` W R _ ` | %. . .%.f.M.X.g.X.e.g.h.o.J ) r.h.c.x.V.Z.B.).).A.(.).i.A O g.0X_.Q.J.<.G.W.XX.X X X X X|.W.E.P.J.1.1. XrX",
"V Y T E ` } _ ` R W ` %.%. . .%.g.N././.C.i.J F 9.q.u.s.x.V.F.D.A.-X-X).-X2X1X).o.T /.T.Y.J.1.|. X.X.X X X.X.X X|.E.<.1.<.W.zXDX",
"E T V V R _ _ | Q W Q |  . . . .X./.vXvXC.D x H q.r.p.s.v.V.F.D.-X=X,X=X=X>X>X>X).X.U.T.I.J.E.#X@X.X X.X@X X X|.P.!.J.P.E.%XDXFX",
"_ ^ Y V Y Y E ` @.` Q Q Q }  . .X.M.wXwXH 4 x r.q.q.y.s.d.F.F.S.=X-X=X,X,X,X,X<X>X/.g.R.Y.I.#X X@XOX#X%X#X|.E.!.G.|.%XeX@XtXDXFX",
"` { R Y U C U Q @.} ` R R Q  .%.&.{ /./.6 4 A q.q.r.a.s.V.V.F.S.=XD.Z.-X,X,X<X2X1X).Z { Y.[.%X X@X#X%X#X XE.J.J.|.kXAXCXtXtXAXDX",
"_ { _ R E V U ` @.@.@.} } #.=.-.j.{ R.k.1 6 / ) i.u.a.s.v.V.S.D.=X-X-X=X,X<X,X<X<X].X.6 E &X X@X.X@X XW.!.P.J.J.dXDXFXDXjXyXCXzX",
"_ { | { _ T T } *.*.#.+.#.=.,.,.j.j.T.' 2 m X.] w.w.6.6.0.a.V.D.Z.-X,X,X=X=X,X2X>X3X/.6 5 '.XX.X X X|.P.P.W.|.|.lXDXFXDXgXeXrXeX",
"{ ..| ..| R R | >.*.} Q } %.-.=.=.-.&.5 3 Z X./ F D S M S 6.x.D.-X,X-Xx.5.6.y.B.1X].M.E a L..XXX X X|.E.W.%XpXtXCXFXFXVX#X|.#X#X",
"..{ { ....^ R %.-.;._ V Y W E Y W T 5 O c ^ / F H H q.c.r.3.y.V.-X=XD.c.a.c.u.r.i.C.5X^ 5 $.Q.W. X$X%X#XtXhXlXdXjXDXDXtX|.+XdXCX",
"X...] ..{ E E ..-.;.^ V V Z C a a a 1 O c / ) H ( q.x.Z.x.5.3.a.=X;X-Xc.c.B.).(.h.N./.&.b =.I.P.@XtXfXpXjXkXdXeX+XjXnXtX#XtXBXDX",
"f.&.X.&.%.^ ^ %.-.-.{ Y Y Y b p 5 p 2 4 A o.) ( H G S 5.p.0.3.0.=X;XZ.y.6.r.B.).(.)./.R.Y =.Q.W.%XhXMXzXhXdXtX+X+XyXnXdXrXnXGXDX",
"f.f.&.f.;.' ' %.f.j.| R ^ ^ V a p c m z F ) 6.6.S M B B 5.5.3.y.=X,XZ.7.M S 6.u.).(.`./.b @.XX$XaXxXzXdXtXeX#X+XuXNXVXkXjXMXAXVX",
"f.&.&.;.;.` ^ ..-.j.| R _ _ Y b c D A v J ( 6.6.G 3.3.7.y.3.3.x.D.;X=Xs.3.3.y.c.B.1X1X/.Z k.$X$XpXhXfXtX#X#XtXtXkXCXCXjXdXMXVXVX",
"f.;.%.&.&._ R  .j.j.%.^ ` { T b c J J F H 6.5.y.a.v.v.v.s.7.5.a.S.;X2XS.v.v.S.-X-X3X1X~...`.6X6XaXpXfXpXrXyXjXjXmXCXNXjXdXnXVXAX",
"U.k.;.;.=.` _ =.k.m.;.| | | T b v / ( H 6.9.0.x.V.v.x.x.p.0.7.y.S.;X2X=XS.D.;X=X2X>X>XC.l.{.oX%XaXfXlXzXkXkXkXkXmXCXVXkXdXkXVXAX",
"T.n.;.*.*.` ` -.j.k.;.| | | Y c v ( 9.6.6.5.0.s.x.x.V.V.p.7.0.p.D.;X;XD.D.;X;X=X2X-X7X1X{.{.~.6XaXxXzXNXMXkXjXdXjXCXVXnXdXkXCXVX",
"T.m.-.-.-.} _ -.m.k.*.} *.*.R b v q.6.J 3.5.0.a.V.V.S.v.7.7.t.t.:X,X-X;Xx.F.4X2X2X2X-X7X5X{.5X6XcXzXBXBXlXkXkXkXmXZXZXMXjXdXkXVX",
"Y.m.-.-.-.} ` -.m.m.*.} *.*.W b D 6.6.3.5.5.0.a.x.v.V.p.G N N G c.Z.V.=Xx.p.D.4X3X8X>X1X`.`.5X6XcXzXAXBXzXkXkXkXmXZXZXnXjXdXkXVX",
"Y.K.:.,.:.} } >.m.m.=.@.*.=.Q V D ( 9.H G 6.0.y.Z.Z.V.p.4.M N G y.y.7.V.v.a.v.;X2X8X2X1X`.{.6X6XcXzXAXBXzXkXkXkXmXVXCXmXjXdXhXNX",
"Y.K.:.,.,.+.} ,.L.L.=.@.=.=.Q V n ( r.J M 6.y.0.5.5.5.3.G G G 7.a.b.c.-XZ.p.0.Z.<X2X-X(.`.{.6X0XcXBXAXBXzXkXkXkXmXCXCXkXjXdXdXkX",
"Y.K.:.,.,.+.} ,.K.K.:.#.-.>.` V n [ z.( M J 6.y.5.5.G G 6.6.6.0.a.b.c.Z.Z.V.0.y.2X-XC.).`.`.6XsXxXBXAXBXzXkXkXjXkXCXMXjXjXdXyXjX",
"Y.K.:.,.,.+.} ,.L.L.>.#.>.>.` U Z A e.w.J F S t.a.y.S B M G 7.c.^.:XC.a.0.c.y.y.>X(.^.1X5XoX6X0XxXBXAXBXlXkXjXjXjXNXMXkXdXyXrXdX",
"Y.J.:.,.,.+.+.,.I.I.>.#.>.>.` Y Z Z [ n D J v 6.c.c.6.M 6.c.A.3X3XwXwX^./ r.h.A.A.).).1X5X5X6X6XxXBXAXBXkXhXjXjXdXNXCXkXdXrXtXdX",
"Y.m.:.,.,.+.+.,.K.K.:.#.:.>.` Y V Z n O z [ v J r.B.u.3.7.y.y.c.Z.Z.^.Z.b.2X-Xc.C.~.M.U./.XXaXaXxXBXVXBXkXjXgXdXdXCXCXkXdXrXtXdX",
"U.m.-.,.:.} ! :.K.I.,.#.:.,.} U T V V 6 c A D F J q.h.r.6.7.a.c.b.^.:X-X,X<X).B.C.~.U.@.@.OX%XpXzXBXAXVXlXdXgXkXjXMXnXjXyXrXtXyX",
"U.m.>.,.>.} } :.K.I.,.#.:.,.} U U V b 2 6 v A D F 6.r.r.0.y.p.p.b.:X,X2X,X-XZ.h.~.U._.H.O.$XOXpXzXBXVXBXlXkXkXjXjXCXnXjXyXrXtXgX",
"m.j.=.-.=.} +.,.K.I.:.#.=.,.} U V Y c 1 1 v v v D H 9.t.t.y.y.y.b.:X2X2X-XB.B.C.z...k.I.P W.!.OXzXBXAXzXhXlXkXdXjXMXnXgXyXrXuXkX",
";.%.| #.#.` +.<.K.I.:.+.=.,.} U V E m O O Z c z v D 6.u.a.y.t.c.b.^.:X,X-XB.h.h.g.] @._.P I.Q..XhXBXBXpXrXgXhXpXjXlXlXgXyXuXyXnX",
"| | ` } } Q } :.K.I.:.+.=.:.} U V T a O 1 ^ Z z z z M ( r.t.c.b.b.b.^.-XA.h.w./ ~.l.T _.~ :.XX&XaX9X.XW. XpXlXgXdXlXlXjXyXuXjXCX",
"| | ` _ ` W ! :.K.I.:.+.$.:.} U C Z a O 6 ] / A c x x v ( e.t.z.h.^.).B.9.H o.h.1XU.p -.E U Y.XX.XY.$.#.E.aXlXpXdXzXMXjXyXuXiXCX",
"` | ` _ Q W ! =.K.K.:.+.$.:.} U V V c O 6 ^ o.[ A z 6 x v F J [ 8.h.h.w.F H B.1X5XU.3 Y _ p n.&X.XY.>.<.W.tXfXaXhXNXMXjXyXtXyXnX",
"^ _ _ _ Q W ! :.K.K.:.} $.:.` U V V b   6 F o.) F D v x 4 x v n D n v v ) C.].].5Xl.3 p _ 5 ,.0X%X$X$X$X%XaXaXpXhXBXCXkXyXtXrXkX",
"T R _ ` ` E ! :.I.K.$.! @.>.*.W _ R a   O Z i./ / F D v z v D v n / w.i.C.1X1X].5XM.2 2 a p Y Q.[.XX&X%X$X.XXX XXX#X#X+X#XtXdXkX",
"R R R W Q T W $.:.K.<.=.#.*.#.` | E a O O v o.o.) J J F D / e.w.h.C.).).].1X1X1XqX&.1 2 p p C } #.>.Y..XW.<.#.1.$.+.! 2.*XfXNXNX",
"E E E W _ E ! $.I.K.:.+.#.=.*.Q C i , + O 6 ^ e.w./ H / H o.h.N.~.).].].(.(.1X5X5Xb 2 q 2 5 i a C +.XXaX.X$.~ +.$.+.~ ~ <.@XzXAX",
"Y E R _ ` W ! $.K.j.,.:.=.@.b 2 . X + = O 2 Z w.e.) H / / ) h.C.(.`.].(.].1X7X5X%.3 p q , , i i $ k I.aX%XI.:.<.<.H.<.+.1.E.$XpX",
"R ^ _ W W T W #.H.<.:.` U p +   X < 5 5 O O c / w.) / / / ( i.C.).1X1X(.1X7X1XM.p q b ; - : y j f ; > U H.XX.XXX.X%X$X.X%XcXcXcX",
"^ ' _ R R E Q =.:.! k 2 o o o = - : y >   O 6 Z o.w.) H H H 9.h.C.).(.).>X1Xl.T 2 l k - 7 r : i : f k u ; k H.aXaXxXcXaXsXxXvXvX",
"^ ' _ R _ W ~ W k y o + , , + . 7 & & , o O 6 v / w.9./ ( H ( i.C.).].].(.C.] p 3 b l u 9 9 : r : - y f f u i k [.aXxXsXsXsXvXGX",
"R _ W _ ` T l y ; $ $ = * o + , r X X > , o 2 p Z o.w.( 9.q.r.c.C.).(.).C.X.b 1 i k u K - @ r u u * * f f > ; f 7 O.W.$X6X6XaXsX",
"` Q T k i q 7 7 7 > * * * * * * . X . @ * ; , = R V X.) e.r.u.B.B.Z.A.C.e.V p q j j g g f * . - u y > 7 f u 9 8 f u g ~ $.1.1.1.",
"U k i > > > 7 7 > ; - * * * * * . o o * $ @ . X , b &.e.F 6.u.x.B.B.h.e.E a 2 - e h K h f > @ $ u r - 7 f u 8 8 t 8 8 s h K I U ",
"i 5 * * - 7 7 7 - - - - * * + + o $ * * @ X X X   + c l.e.r.y.t.u.u.w.F c p , . # s K K h y - * u 7 * - u f 8 8 s d s e t g K I ",
"> , , > q y 7 > - - ; ; - * + + o * * * @ X X X X     ^ C.h.r.q.9.9.H v p p ; X X & e g h f 7 7 u 7 * * y f 8 8 8 s s e t g h h ",
"* , > 7 7 > ; - - - > > - * + + o $ * @ . . . .   2   3 l.h.t.9.( ( D z 3 3 > . X # # 8 h d e f i y * @ 8 f e e 8 8 8 e e d d t ",
", , > , - - > 7 - > 7 > - * * * * * * @ . . . . X = O 3 C.C.z.r.6./ n 3 1 2 > @ 0 # # 0 d t 8 d i u - @ 7 y 8 s s 8 9 e g h h h ",
", , - , > 7 7 q - 7 7 7 - * * * ; ; - * * & @ . .     3 z.~.h.z.w.( D 6 1 2 ; * e 9 # 0 t t 8 s u u - @ - 9 8 s 8 & & e g d g h ",
"* * * > q y 7 - ; 7 7 7 - * - , > , - : : : & @ , o     1 l.l.z.w.) [ c p 2 q 9 e t 9 0 8 t t t u u - @ & 9 8 s e 0 9 g K d t g ",
"* , * * 7 q - - 8 7 7 7 ; - , > > 7 > : : : : * * >   =   1 f.l.] w.Z 2 2 q q 7 e e t t t t t e d y 9 - @ @ 7 f 7 0 9 d g s d h ",
"; ; * * q q - 9 7 8 q 7 - - , > > > > : : : : - X , 2 , o O b f.&.^ m 1 % ; q d e e t t t t t t d u 7 9 & @ 9 f 9 & 8 g d t g L ",
"> - @ - q 7 - 7 9 8 y 7 - - , 7 > 7 7 : : 7 : - * * y * p p o R ] c 2 % = ; u f e t t t t t t 8 f u 8 9 * @ - 7 7 & e g t t L g ",
"> - @ - y 7 - 7 7 7 y 7 - * > y 7 7 7 : : 7 : ; : - > $ l l   b U 2 % q 7 7 u w s t e t t t e 8 s u u 7 - @ & - e - e d e t L t ",
"> - @ * y 7 - 8 9 7 q 7 - - > y 7 7 7 : : 7 7 : . - 7 > > ; $ q l ; 2 w 7 u d 9 s s t t t u 8 8 w u u 8 7 * & & u 7 7 e e d g 8 ",
"- - @ $ 7 8 9 9 7 7 7 7 - ; 7 q 7 7 7 : : 7 7 : @ - - 7 - $ > X q q w 7 9 s d 8 s t t e e u 8 8 8 s f u 7 - * @ r r 7 9 e d t 8 ",
"@ - * @ 7 y 9 - 8 9 9 ; ; 7 7 q 7 7 7 : : 7 r 7 7 : @ 7 q - 7 @ w u 7 9 8 s s e s s w w s u w 8 8 u f u 7 9 - @ - i e & e t 8 t ",
". ; * @ 9 u 9 & 8 9 - - 7 7 7 7 7 7 7 : : 7 r 7 : : * - 7 @ & j u s 9 9 d s 9 8 s s w u u u w 8 9 u f u w 7 : & . f e & e t 9 g "
};
