/* XPM */
static char *_43452aaef9a4d0f92facd3ab44b9e3cw1ZpkzmVwghh8N1C[] = {
/* columns rows colors chars-per-pixel */
"64 64 246 2 ",
"   c #0C0402",
".  c #0C0C0A",
"X  c #090905",
"o  c #140402",
"O  c #140C0A",
"+  c #1B0C0C",
"@  c #170905",
"#  c #15110D",
"$  c #1C120D",
"%  c #180F12",
"&  c #0E1312",
"*  c #141214",
"=  c #1D1513",
"-  c #1D1916",
";  c #1E1A19",
":  c #1C1719",
">  c #0C0E0E",
",  c #230E0B",
"<  c #260A06",
"1  c #24120C",
"2  c #2B120C",
"3  c #241007",
"4  c #34160E",
"5  c #240D12",
"6  c #231514",
"7  c #2C1512",
"8  c #221B15",
"9  c #2C1A15",
"0  c #231D1A",
"q  c #2A1D1C",
"w  c #2B1718",
"e  c #361A16",
"r  c #25211D",
"t  c #2A221D",
"y  c #282115",
"u  c #36221D",
"i  c #261F21",
"p  c #262222",
"a  c #2B2423",
"s  c #2D2925",
"d  c #2D2A2A",
"f  c #2B2729",
"g  c #312624",
"h  c #322C25",
"j  c #332D2A",
"k  c #3A2B27",
"l  c #36312C",
"z  c #3B332C",
"x  c #363127",
"c  c #332F30",
"v  c #353232",
"b  c #3C3432",
"n  c #3D3936",
"m  c #3E3A3A",
"M  c #272A3D",
"N  c #1F1D20",
"B  c #411F16",
"V  c #43231C",
"C  c #5E281E",
"Z  c #472B25",
"A  c #45352E",
"S  c #57342C",
"D  c #413634",
"F  c #423936",
"G  c #443C3A",
"H  c #4B3D3A",
"J  c #563A34",
"K  c #572C24",
"L  c #663D35",
"P  c #70382D",
"I  c #56241F",
"U  c #45423D",
"Y  c #4B423E",
"T  c #4C483D",
"R  c #55453D",
"E  c #6A433A",
"W  c #77453A",
"Q  c #473F42",
"!  c #454342",
"~  c #4C4543",
"^  c #4E4944",
"/  c #4B4A4B",
"(  c #524A44",
")  c #534D4A",
"_  c #564B47",
"`  c #55514E",
"'  c #5B544D",
"]  c #525044",
"[  c #5A5552",
"{  c #5D5955",
"}  c #5B5A5B",
"|  c #565553",
" . c #494A58",
".. c #774D45",
"X. c #66554D",
"o. c #79524A",
"O. c #645B53",
"+. c #635E5B",
"@. c #675C55",
"#. c #7B5B54",
"$. c #694A44",
"%. c #6D635C",
"&. c #65615C",
"*. c #72665D",
"=. c #74685F",
"-. c #7F6158",
";. c #5F5F61",
":. c #4D5363",
">. c #5F6373",
",. c #646364",
"<. c #696664",
"1. c #6D6B6C",
"2. c #6A6767",
"3. c #706760",
"4. c #756A61",
"5. c #7A6C64",
"6. c #726D6C",
"7. c #7C7B7B",
"8. c #787574",
"9. c #6F6D73",
"0. c #615C62",
"q. c #823E35",
"w. c #86463C",
"e. c #8A4C42",
"r. c #885449",
"t. c #95554B",
"y. c #875B54",
"u. c #985C53",
"i. c #954C45",
"p. c #A15D50",
"a. c #8B645C",
"s. c #986359",
"d. c #A5665B",
"f. c #B1685B",
"g. c #8D6765",
"h. c #976864",
"j. c #86726D",
"k. c #9A7369",
"l. c #847B77",
"z. c #947B78",
"x. c #A36B62",
"c. c #AB6E63",
"v. c #A76E68",
"b. c #B36E63",
"n. c #AD746A",
"m. c #A7756A",
"M. c #B6766A",
"N. c #A97B74",
"B. c #B87D72",
"V. c #A16F70",
"C. c #C47D72",
"Z. c #C2786C",
"A. c #7A837E",
"S. c #85817E",
"D. c #96837E",
"F. c #AB837A",
"G. c #B78378",
"H. c #BB806E",
"J. c #C68477",
"K. c #7C7D85",
"L. c #837D81",
"P. c #A67F80",
"I. c #7E8782",
"U. c #8C8A8C",
"Y. c #878586",
"T. c #978B87",
"R. c #878792",
"E. c #939294",
"W. c #9C9B9C",
"Q. c #999798",
"!. c #929090",
"~. c #A58B88",
"^. c #A8928D",
"/. c #AB9894",
"(. c #B59996",
"). c #BB9D9B",
"_. c #B69795",
"`. c #B78D89",
"'. c #9CA09E",
"]. c #A4A19E",
"[. c #BDA19E",
"{. c #B5A39E",
"}. c #A49EA2",
"|. c #BF9FA0",
" X c #9EA2A1",
".X c #A4A3A3",
"XX c #ABAAAB",
"oX c #A8A6A8",
"OX c #B9A9A7",
"+X c #B4AEB2",
"@X c #B5B3B4",
"#X c #BAB6B6",
"$X c #BCBBBB",
"%X c #BAB7B8",
"&X c #AEAEB2",
"*X c #9F9FA1",
"=X c #C4928C",
"-X c #C7A39F",
";X c #C3A4A3",
":X c #C5AAA6",
">X c #C8AAA7",
",X c #C5ABA9",
"<X c #CBADAB",
"1X c #C9A5A6",
"2X c #D2ADA9",
"3X c #CDB1AD",
"4X c #C6B1AB",
"5X c #D1B3AE",
"6X c #D6B6AC",
"7X c #CDADB0",
"8X c #CDB3B2",
"9X c #C4B8B8",
"0X c #D2B3B2",
"qX c #DAB5B3",
"wX c #D8B9B8",
"eX c #D4AEB3",
"rX c #E1BBB9",
"tX c #BCC0BF",
"yX c #D3C3BD",
"uX c #E0C3BF",
"iX c #BCBBC3",
"pX c #AAB1C3",
"aX c #C1BDC1",
"sX c #C4BFC9",
"dX c #D9BAC0",
"fX c #BEC3CA",
"gX c #C3C2C3",
"hX c #C6C9C8",
"jX c #CBC8C8",
"kX c #D2CED1",
"lX c #D9D6D9",
"zX c #CECED1",
"xX c #E5DADA",
"cX c #E1D2CF",
"vX c #E2DDE1",
"bX c #E3E3E5",
"nX c #ECEAEC",
"mX c #E5E5EA",
"MX c #F3ECEC",
"NX c #F8F3EF",
"BX c #F4F4F5",
"VX c #F5FCFD",
"CX c #FEFEFE",
"ZX c #FAF8F7",
"AX c #EEEEF4",
"SX c #DBE2F2",
/* pixels */
"g g g j j j g g h j j g g g g g t t t t t t g g t t t t t t t t a a a a a t t t t q 0 0 t t 0 0 0 ; 0 0 0 0 0 0 0 ; - - - : : : ",
"a t t t a a q q q t t q q q t a s t t t 0 8 8 8 8 8 8 8 8 8 8 8 = = 8 8 8 8 8 = = = = = = = = = - - - - ; ; 0 0 0 ; - - - - - - ",
"g s a a a a a a t a a a a a a s t t q 0 0 8 8 8 8 8 0 8 0 8 0 0 0 0 0 r r q 0 0 0 0 q q 0 0 0 0 - - - - - - - ; - - - - - - - - ",
"v l j j j j j j s s j s s s j j g s s a s s s s a a a a a t a a s a a a s a a a p r a r q 0 q r s s a a a a a a a a a a a a a a ",
"G m b b b b b v c j c j j j c v j j j s s a a a a a p r p t a a a p p p a a a a f f f s f s f f p p a a p p a a a p p p p a a a ",
"c j d f f f a a p p p p p p p a p p i q i i p p p a p a a s j j v d d d v v c d d f a a f f f f s s s f j j j j j j j f f j j j ",
"Q.E.E.E.!.!.U.U.Y.Y.U.U.U.U.!.E.Q.Q.Q.Q.W./.}.}..X}.}./.}..XoXoXXXXXoXXXXXoXW.E.7.9.2.,.,.,.;.} ) ) ` ` ` ` ` ` ` ) ) ) ) ) ) ) ",
"CXCXCXCXCXZXBXBXAXAXBXBXBXZXCXCXCXCXCXZXZXZXZXZXZXBXBXMXnXnXnXnXnXmXmXmXbXlXgX#X.XE.Y.K.7.8.1.,.,.&.+.{ { [ [ | [ [ | ` ` ` ` ` ",
"CXCXCXZXBXBXBXAXnXnXmXmXmXbXbXbXvXvXlXlXlXjXgXkXjXjXaX%X@X+X+X+XXX.XW.Q.E.Y.7.7.,.;.} | | / / / G G m m m n b b b b b b l l l l ",
"$X$X%X@XXX.X*XW.E.E.U.U.Y.K.7.7.7.8.1.1.8.8.2.1.9.9.1.2.2.2.,.,.,.,.;.,.,.,.,.} ;.} } } } } } { +.+.{ { { { [ | { { [ ` { <.2.&.",
"zXzXjXgXaX$X#X@X@X@X&XXXXXoXoXoXoX&X&X+X%X@X#XgX$XiXaXaXaXaXaXaX9X9X$X#X#XXX.XE.E.U.U.U.U.Y.L.Y.8.8.6.6.6.6.2.2.<.<.<.6.S.!.!.S.",
"#X#X%X$X$X$X%X@X#X@X#X#X#X%X$X$X$XgXgX9XgX$X$XgXiX$X$X$X$X$X$X$X#X#X%X$X@XW.U.Y.Y.S.7.8.1.,.+.&.{ { ` ` ` ` ` ` ` ` +.8.!.!.Y.7.",
"Q.Q./..XoXoXoX].oXoX.X].].].].]..XQ.U.Q.9XzXgX@XgX9X$X$X%X%X%X%X$X@X#X9XXXS.6.8.8.6.1.<.&.{ { +.` ) ) ) ) ) ) ) ) ~ { S.!.l.8.8.",
"Y.S.l.S.S.S.l.8.l.7.8.8.8.8.8.8.7.7.8.U.@XgXgX$XgXyX9X$X$X$X$X$X#X+XXXXX!.&.) [ ) ^ ^ ~ U G U ^ v l j j l b v b m l G { +.) ) +.",
"6.<.+.{ { { [ ` ^ ^ ^ ^ ^ ^ ^ ^ | <.1.<.2.2.2.6.<.<.<.<.<.&.} { ` ) _ ( G z j g z j j g a t a j j j f j j l j j 0 - 0 p a 0 r s ",
"` ~ n l j l z l b b z l l l l l s n n l l d s f s j j l j a 8 $ t g t 8 t z b s j j j s t r t j s a a a s s a a j l l s s l l s ",
"` _ b t z F b G v z l l l z b b v j j v b l j b G G b t 7 @ o o 1 3 1 6 $ O # ; r j n s - - t h t s h j g g g g h j j j x x x x ",
"G Y b j D G b j b b z l l b b b D b v v v v n G G a w 9 < < e Z S V 2 @ @ = ; ; * ; a s r - y h s s j j h g h h h h h h x h h h ",
"[ _ n g j G ~ Y F n b b b b n D F F n v b G G G j 6 , 1 < Z o.#.a.o.S e , , = * # O = g h t t k h j j j h h j x h h h h h h h h ",
"~ ! m l b U G j F D n n n n D D G G D F H ~ G z $ 9 2 < Z a.N.k.N.m.h...Z 2 + 5 $ O * q g t u k j l x j h h j x h h h h h x x x ",
") ` U l n ~ ! n n n F F D D D D G F F Y ( ^ b q @ u 2 4 y.`.F.N.n.n.n.V.o.V 2 7 + + + + 6 g k z z z z j h h j l h h x x x x x z ",
"` } U p v U n n G G G G G G G G Y F G ( _ G a 1 1 2 < S N.G.m.G.B.n.n.n.h.L e , 5 5 + o + q D F b b v z x j x l x x l l l z z z ",
"1.'.W.E.XXE.| ! G G G G Q Q ~ ~ ( U Y ) ~ h 8 6 9 < B y.F.B.M.J.J.C.b.x.x.y.S < 7 5 5 + + 6 j G b n F n z l z z x l l z z z z z ",
"Y.hXzXhXbX@X} ! G G ! ~ ~ ~ ~ ^ _ T ^ _ G 0 $ 9 2 < L N.N.B.J.M.M.C.M.x.v.V.o.e 7 5 + $ + O 0 b F F G G F z z z x x l z z z z z ",
"I.zXhX@XlX$X&.! ~ ~ ~ ^ ^ ^ ~ ~ [ U ' G 0 t 1 1 2 4 y.m.B.n.B.J.C.J.M.d.r.E E Z , 7 6 O = - O a ~ G G H G z j z l l l l z z z z ",
",.A.A.7.!.I.} / ! ! ~ ^ ) ) ` ` G ' 3.~ 8 = 8 9 e 2 L E P P u.M.J.B.d.t.e.L L Z 2 1 = o # * . p Y F b b z z z D z z z z A A A F ",
"XXE.Q..X X XoX.XoXoXXX&X@X#X%X%XjXjXU.U 0 6 9 3 < < E s.n.b.b.d.J.M.d.s.d.s.h.#.u 7 $   O # X ; b b b b F Y ~ T T T ( ( R ( ( ( ",
"VXBXVXVXBXBXCXCXZXBXBXBXBXBXBXBXNXjX+.r 0 0 t 3 1 e y.s.u.e.d.b.M.f.i.t.u.W E S Z 9 1 O O # X = 8 j G ~ ( ' ' ) O.O.O.O.O.O.O.O.",
"oXXXoX.X.X X'. XQ.Q.Q.E.E.U.U.U.].l.j 0 j 8 q 9 e 4 L L C C i.f.b.f.w.w.e.P K V S 4 1 @ O $ X # o g ~ _ ' O.O.O.O.O.O.@.@.@.@.%.",
"&XgX$X@XtXfX$XfXhXhXjXhXhXhXhXhXkXY.v f j = + 9 7 < S ..s.d.c.p.b.M.i.e.s.s.s.a.L 4 < @ O $ O + O g ~ ` ' O.@.%.@.@.@.@.%.%.%.%.",
"BXCXVXVXCXCXCXCXVXVXVXVXCXCXCXCXCXU.j : q 8 + 8 7 e a.m.N.n.M.b.b.Z.i.q.u.d.h.s.o.B 2 < o O O O + q D ` O.O.@.3.%.%.%.%.%.*.*.*.",
"CXZXCXCXVXVXCXVXCXCXCXCXVXVXVXVXnX6.j i p g + , 2 e a.N.G.G.B.f.M.C.t.w.d.n.n.x.s.K e , o @ O O   O g ( @.@.@.@.%.%.%.%.%.%.*.*.",
"CXCXCXCXCXCXCXCXCXCXCXCXCXCXCXCXbXQ.g g q w 6 7 u 4 k.G.J.J.Z.f.f.B.u.w.u.M.c.n.s.y.Z < o   # O     0 Y O.%.%.%.%.%.*.*.*.*.*.*.",
"CXCXCXCXCXCXCXCXCXCXCXCXCXCXCXCXCXjX_ s 6 q w 7 V Z m.G.J.J.Z.f.w.t.W P i.c.d.x.u.y.Z 7 6 O . X O   8 F O.%.%.%.%.%.*.*.*.=.*.*.",
"CXCXCXCXCXCXCXCXCXCXCXCXCXCXCXCXCXMXl.j = 8 w e V $.N.G.=XJ.C.b.u.c.t.w.d.n.c.v.s.o.V 2 $   . X O   $ z ' %.%.%.*.*.*.*.*.*.=.=.",
"CXCXCXCXCXCXCXCXCXCXCXCXCXCXCXCXZXnXY.f 8 0 6 u u #.F.B.J.B.Z.b.c.M.d.e.t.u.u.u.h.o.Z 7 $   . > O o = b ' %.%.%.*.*.*.*.=.=.=.=.",
"CXCXCXCXCXCXCXCXCXCXCXCXCXCXCXCXMXjX2.0 a a 6 k Z a.F.m.B.d.d.p.d.d.u.e.e.t.u.s.y.o.S k a . X X O $ s ^ @.%.%.<.*.=.*.=.=.=.=.=.",
"CXCXCXCXCXCXCXCXCXCXCXCXCXCXCXCXnX%X9.f a = 8 R Z a.F.v.m.s.t.i.w.w.w.P P W e.y.y.o.Z t 0 . . . X $ h _ %.%.%.%.=.=.=.=.=.4.4.4.",
"CXCXCXCXCXCXCXCXCXCXCXCXCXCXCXCXBX@X7.b a O = H k $.F.k.m.c.s.d.d.u.t.u.t.u.u.u.y...e o   X & . X # t T O.%.%.%.4.4.=.4.4.4.4.4.",
"CXCXCXCXCXCXCXCXCXCXCXCXCXCXCXCXZXW.,.d v r O O 3 Z k.h.m.G.c.B.c.u.t.u.u.s.u.r.y.$.9 o O # &   # # r G O.%.<.4.4.4.4.4.4.4.4.4.",
"ZXCXCXZXCXCXZXCXCXBXZXCXCXCXCXCXBXmXU.p * p - $ + e -.k.m.s.d.n.c.d.s.s.u.t.r.o.o.S @ o # . & X X # t Y O.%.%.3.4.4.=.4.4.4.4.4.",
"BXCXCXCXCXCXCXCXCXCXCXCXZXCXCXCXBXnX} p * 0 : O 3 2 E #.k.m.M.B.B.M.n.c.x.u.r...L Z o o O . & . O $ t U O.%.%.3.4.4.4.4.=.4.4.4.",
"CXCXCXBXZXBXBXZXCXCXCXCXCXCXCXCXMXbX;.N f 0   8 3 , J E y.s.m.M.n.n.x.x.s.r.W E S u o o O X * * O # t G O.4.4.4.4.4.4.4.4.4.4.4.",
"CXCXBXZXCXCXCXCXCXCXBXCXCXCXZXCXCXQ..X! * : s O @ e o...W W r.s.r.r.r.r.W L S S R Z , O O X * * = 0 l ( @.4.4.4.4.4.4.4.4.4.5.5.",
"CXCXVXCXCXZXlXgXmXCXCXCXCXCXZXZXZX%XXXv p ; * 6 o k g.a.r.W W W W W W E L S S J o.J 1 + + . * # - j ~ O.%.%.%.3.4.4.4.4.4.5.5.5.",
"CXCXCXCXZX$X1.! Y.mXCXZXBXCXCXZXCXzX9.m * : q O o Z k.k.m.s.r.W r.r.....E E E ..#.J , o O O * O   t T { @.%.3.4.4.4.4.4.5.5.5.5.",
"CXCXCXCXZXgX7.} } gXCXZXZXCXCXCXBXvX/ f p ; O 6 + A z.F.F.N.d.r.s.a.y.r...W o.#.#.J , @ + o % O   t Y ` O.%.4.5.4.4.4.5.5.5.5.5.",
"CXCXVXCXCXxX%X&X7.gXBXCXCXCXBXCXCXoX0.m 0 = w 6 , J F.F.F.M.n.d.s.s.s.y.o.....#.#.J 7 + + o % O r b _ O.&.%.3.%.4.4.4.5.5.5.5.5.",
"VXCXVXCXCXZXlXY.9.Y.gXZXVXVXVXVXVX8.m Q 8 $ g 7 < E F.G.M.H.H.M.d.d.u.t.r.r.y.y.#.$.Z o   + 6 O 8 ( { ' &.=.=.5.4.4.5.5.5.5.5.4.",
"BXVXCXCXCXCXkX2.L.oXmXZXVXAXVXVXVXlX2.. O w e Z o.h.F.G.G.B.M.b.M.b.d.t.r.y.y.y.#.$.J k t q q 0 z ] { ' O.%.5.5.4.4.4.5.5.5.5.5.",
"CXCXVXZXZXCXMX}.iXiXbXBXVXVXVXVXBXCX9Xl.T.T.j.).).F.N.G.G.H.B.H.b.c.s.t.r.y.y.a.#.o.#.*.@.( H ~ Y T ' &.%.=.5.%.5.4.4.4.5.5.5.5.",
"CXCXZXCXCXCXCXAX&XR.oXzXCXVXVXVXCXCXNXNXMX8XOXcX6X_.N.F.G.G.B.G.M.M.v.h.h.h.h.g.#.#.j.D.D.5.3.5.O.R _ O.O.%.5.*.5.5.5.5.5.5.5.4.",
"ZXZXCXCXCXZXCXAX>. .K.&XmXBXZXCXCXMXxXcX8XOX3X3XwX2X=X`.G.N.N.n.N.n.x.h.h.h.g.g.g.z.~.~.T.z.z.z.D.*.X.X.' @.5.5.4.4.5.5.5.5.4.4.",
"ZXCXCXCXVXCXVXfX>. .9.K.aXZXCXNXxXcX8XOXOX<X3XuXwXwXqX-X=X`.`.F.N.V.h.g.h.N.N.P.`._._.^.~.~.~.T./.T.z.j.5.5.5.*.*.=.4.5.5.5.5.5.",
"ZXZXCXZXVXVXVXpXK.:.9.>..XxXxXyX8X8X,X4XwX<X).0XqXwXrXqX2X2X1X1X=X_.`.`.).1X1X1X;X;X)._._._._.~./.(./.^.~.D.j.5.5.5.4.4.5.5.5.5.",
"NXZXCXCXZXAXSXpX . .R.!.+XjX4XOX{.OX8X8X<X3X0X<XwXqXqXrXrXqXqXqXeXeXeXeX0X0X<X).;X).(.).[.[.)._._.;X_.~.^.^.T.~.j.j.5.*.*.*.=.4.",
"ZXCXZXCXmXzXfXR.M K.&X%X9X9X,X<X:X:X<X3X3X<X<X>X0X0X0XqXqXqXqXqXqXqXwXqX0X7X<X:X|.;X1X;X;X[.)._.>X^.0X^./._.D.^.^.D.T.D.*.*.j.4.",
"NXCXNXMXZXmXzXR.R.+XsX%X9X4X,X>X<X<X3X3X3X<X<X>X<X<X5X0X0X0X0X0X<X7X7X7X<X:X;X;X;X1X1X1X;X;X)._.>X_.5X)._.).^././.^./.^.l.@.X.' ",
"NXCXCXCXZXjXhXsXiXjXaX+X9X8X,X>X5X0X5X5X3X<X<X<X>X>X<X0X0X0X7X<X<X<X<X<X<X>X,X,X,X>X>X>X>X>X;X).1X;X<X0X).[.[.(.^./.^.^.T.X.k A ",
"CXZXNXkXE.U.+XkX9X9XOXOX8X8X7X:X0X0X0X5X0X8X0X3X<X<X0X0X0X0X0X<X0X8X8X8X8X3X8X8X<X<X<X>X<X<X1X).;X>X;XwX).).>X(._.(.{.OX/.j.R k ",
"BXCXCX#XG Y.#X8X8X<X<X0XwX0X<XOX0X0X0X0X0X0X0X0X0X0X0X7X7X0X0X0X8X8X3X3X3X<X<X<X<X<X<X>X<X<X>X[.;X5X).wX).).<XOX).(.>X<X/.T.5.Z ",
"CXbXkXY.G {.yXwXwX0X0XwX0X0X8X;X0X0X0X0X0X0X0X0X0X0X<X<X<X<X0X0X<X3X3X3X<X<X<X,X<X<X>X,X<X<X>X[.1X0X;X<X>X;X<X>X;X).,XOX~.~.z.A ",
"mX,.p   _ 8X5X6X6X2XqXqX<XwXwX,X8X8X0X0X0X0X8X8X0X7X<X<X2X2X2X5X<X3X3X3X3X3X3X<X3X<X,X>X<X3X<X;X;XqX<X;XqX;X;X<X<X3X0X;X/.^.D.#.",
"/ > N O T.uX>X6X6X2XqXqX<XwXdX;X8X0X0X0X0X0X<X<X7X0X0X0X0X0X2X<X>X:X3X3X5X3X3X3X3X<X,X,X<X3X<XOX).0X5X).wX;X).<X;X0X<X)._.~.z.z."
};
