/* XPM */
static char *e56c3e36253b46e2e505251644e88191GfPBLC7deQJAHYAR[] = {
/* columns rows colors chars-per-pixel */
"64 64 248 2 ",
"   c #271B16",
".  c #361E13",
"X  c #301A0E",
"o  c #2B211D",
"O  c #2E2015",
"+  c #372317",
"@  c #2E2621",
"#  c #2D2926",
"$  c #342A25",
"%  c #372B27",
"&  c #3C332C",
"*  c #3F3832",
"=  c #1E1412",
"-  c #46281B",
";  c #512D1D",
":  c #67321B",
">  c #492C23",
",  c #493428",
"<  c #55362B",
"1  c #463B34",
"2  c #563B33",
"3  c #542F27",
"4  c #693828",
"5  c #6F3E31",
"6  c #4D443D",
"7  c #474139",
"8  c #55463B",
"9  c #53402F",
"0  c #77422D",
"q  c #674537",
"w  c #794A37",
"e  c #79513B",
"r  c #6E4026",
"t  c #4E4641",
"y  c #4E4A44",
"u  c #504741",
"i  c #544B44",
"p  c #594E45",
"a  c #584F48",
"s  c #554E4A",
"d  c #57514B",
"f  c #5B534C",
"g  c #595047",
"h  c #5D5552",
"j  c #5E5954",
"k  c #664A43",
"l  c #67554C",
"z  c #785548",
"x  c #635B54",
"c  c #655E59",
"v  c #695F59",
"b  c #655952",
"n  c #7A5C53",
"m  c #784F49",
"M  c #67615B",
"N  c #6B635C",
"B  c #696057",
"V  c #77655A",
"C  c #6C6661",
"Z  c #6D6965",
"A  c #676967",
"S  c #726A64",
"D  c #736E6A",
"F  c #776B67",
"G  c #76716D",
"H  c #7B726D",
"J  c #7C7572",
"K  c #7E7975",
"L  c #797774",
"P  c #6C706F",
"I  c #844839",
"U  c #87563E",
"Y  c #A2513C",
"T  c #875847",
"R  c #945C48",
"E  c #8A564C",
"W  c #A85F4A",
"Q  c #97634B",
"!  c #8A6658",
"~  c #986958",
"^  c #906754",
"/  c #A4654D",
"(  c #A66A59",
")  c #B86B56",
"_  c #AC735D",
"`  c #A6725C",
"'  c #B7755B",
"]  c #B9624E",
"[  c #866B65",
"{  c #966B63",
"}  c #87756C",
"|  c #997668",
" . c #827975",
".. c #8C7C75",
"X. c #847C7A",
"o. c #897D7A",
"O. c #817674",
"+. c #967A74",
"@. c #A96B65",
"#. c #A47564",
"$. c #AB7C6B",
"%. c #A87767",
"&. c #B77966",
"*. c #A67A73",
"=. c #C6775C",
"-. c #CA725B",
";. c #C37B64",
":. c #C67C67",
">. c #D87E68",
",. c #84817E",
"<. c #8C837D",
"1. c #92857B",
"2. c #98877A",
"3. c #BD826E",
"4. c #B4846B",
"5. c #A88477",
"6. c #B98776",
"7. c #AD8773",
"8. c #C4826C",
"9. c #CA856A",
"0. c #D4856B",
"q. c #D88668",
"w. c #C48A73",
"e. c #C98A73",
"r. c #D68B74",
"t. c #C99179",
"y. c #D9957A",
"u. c #E69779",
"i. c #E39070",
"p. c #D4815F",
"a. c #848381",
"s. c #8B8582",
"d. c #8D8985",
"f. c #8C8A88",
"g. c #938B86",
"h. c #928E8A",
"j. c #978B83",
"k. c #98928C",
"l. c #9C9591",
"z. c #9C9997",
"x. c #B68A82",
"c. c #A2948A",
"v. c #AB9A8D",
"b. c #A69689",
"n. c #A39B95",
"m. c #AB9D92",
"M. c #A39E9A",
"N. c #A69993",
"B. c #B1938C",
"V. c #A4A19D",
"C. c #ABA19A",
"Z. c #B6A69A",
"A. c #B8B19F",
"S. c #ADACAB",
"D. c #A9A6A4",
"F. c #B5ABA6",
"G. c #BAB3AB",
"H. c #B3B3B3",
"J. c #BBB8B7",
"K. c #AFB3B6",
"L. c #D79C83",
"P. c #C69182",
"I. c #E69C84",
"U. c #DAA48A",
"Y. c #D7AC95",
"T. c #DBB29C",
"R. c #CCA591",
"E. c #E9A588",
"W. c #E5AA94",
"Q. c #E7B298",
"!. c #C9B7AA",
"~. c #D8B8A8",
"^. c #C6BCB6",
"/. c #D7BDB3",
"(. c #C6AAA6",
"). c #E7BBA6",
"_. c #F5BDAB",
"`. c #DCC1AD",
"'. c #C9C2BD",
"]. c #DCC4B4",
"[. c #D6C5BB",
"{. c #DAC6BA",
"}. c #DDCABD",
"|. c #D7C3B4",
" X c #E7C4AC",
".X c #F2C4AD",
"XX c #E3C5B4",
"oX c #E4C9B5",
"OX c #E4CCBC",
"+X c #EACDBC",
"@X c #E7C6B7",
"#X c #F4CAB5",
"$X c #EBD1BE",
"%X c #E5D1BE",
"&X c #F5D4B8",
"*X c #BBBFC3",
"=X c #CAC5C4",
"-X c #CDCCCC",
";X c #C6C5C3",
":X c #DCCCC3",
">X c #D5CBC7",
",X c #CDD1CE",
"<X c #DAD2CC",
"1X c #DBD6D3",
"2X c #DCD9D5",
"3X c #DADADA",
"4X c #D5D6D4",
"5X c #D3CFD0",
"6X c #E3CEC1",
"7X c #EACCC3",
"8X c #E5D1C3",
"9X c #EBD3C4",
"0X c #E3D4CB",
"qX c #EBD6C9",
"wX c #EDD9CB",
"eX c #EDD8C5",
"rX c #F2D5C5",
"tX c #E4DBD4",
"yX c #E4DDDA",
"uX c #EADBD5",
"iX c #F1DAD1",
"pX c #DEE1DD",
"aX c #E5E1DD",
"sX c #EAE2DD",
"dX c #F5E3D6",
"fX c #DEE1E0",
"gX c #E5E4E2",
"hX c #EBE5E4",
"jX c #EAE9E6",
"kX c #EBEBEA",
"lX c #E7E8EA",
"zX c #F2EEEB",
"xX c #F4EAE5",
"cX c #F4F2EE",
"vX c #FBF3EE",
"bX c #FEFAEC",
"nX c #FCECF5",
"mX c #F5F4F4",
"MX c #FBF6F2",
"NX c #FDFBF5",
"BX c #FEF6FD",
"VX c #F6FBFC",
"CX c #FFFEFA",
"ZX c #FEFFFF",
"AX c #FEFEFD",
"SX c #FEFEFD",
"DX c #F6F8F8",
"FX c #ECF1F6",
/* pixels */
"mXZXZXVXZXZXSXDXmXVXZXZXVXDXNXZXSXDXNXZXVXDXNXZXZXNXZXZXmXZXMXJ.S D H J O.O.X.X.O.X.X.X.X.o.X. .X.a.a.,.,.a.a.,.a.a.a.,.,.,.,.,.",
"ZXZXZXVXNXmXDXZXZXZXZXZXZXZXZXZXZXZXZXZXZXZXZXZXZXZXZXZXmXZXZX-XH H J O.J O. .X.X.o.o.o.X.X.J F X.,.s.a.s.d.f.d.s.s.s.s.s.d.f.f.",
"DXNXcXmXZXZXZXDXCXmXjXgXkXcXkXjXgX3X4X3XgXgXyX4X3X5X1X5X=X5X1XJ.g.g.g.g.g.g.g.h.s.d.d.d.g.<.O.S X.,.d.d.d.f.h.d.g.d.d.s.s.,.,.,.",
"DXmX4X'.3XCXZXNXZXmXkXjXzXcXcXkXcXjXjXkXMXNXmXzXMXzXmXcXjXzXMXxXMXMXMXMXvXvXMXMXvXvXvXvXMXMXxXyXxXcXMXvXcXcXcXzXsXyX2X<X-X'.^.^.",
"CXCXMXjXkXcXNXCXCXCXBXNXCXCXCXCXNXDXMXMXBXCXCXCXCXCXCXCXCXBXBXBXNXNXNXNXNXNXNXNXNXNXNXNXNXNXNXvXNXCXCXCXNXNXNXNXCXNXMXxXsXtX1X<X",
"l.k.n.H.J.k.X.h.g.h.h.k.k.k.k.k.M.M.M.l.k.l.n.n.l.l.l.n.n.N.l.N.n.n.N.n.M.n.n.n.n.M.n.n.n.n.n.c.n.M.C.M.n.V.C.M.n.n.l.k.g.g.d.s.",
"f 7 * y j i 7 i s s s d d d f h d f f i t y i u d f f f x b f a p p p d f d i 8 f x b f f f l l f b x f f x c c c c c c x x c c ",
"d M x u s x x x x x h h x c c c c M M x x c c x v N v x C S v x B B B M N M b f f c M c b b B N M N N M M N S S N N N N N N N N ",
"1 7 t u u u t t t t t u u u u u d 1 i u u f 6 u p 8 6 i p i 8 6 p s 8 6 s s i f 6 s 6 6 f 6 1 u u u 8 6 6 6 6 6 i u u u i i i i ",
"1 7 6 t 6 6 7 6 t t 6 6 6 t u i 1 8 s 7 6 i 8 f p i p l b l l b 8 p s u u 6 g C 6 s i 6 8 d f p s s s s s s s a i s s s s s a a ",
"d f h h h h h h h h f f f h h j d N f f M f d x S M x f i 6 8 i x c b x M c b c v M S M f x v b x x x c c M M M C C C C C C C C ",
"f h h h h h x x h h h h h h h x M M d M M d S F F c i 1 $ o o $ & & & 1 a x c S N c f l v c x c x x x c c M M M N N N N N N N N ",
"K K X.X.X.X.X.X.X.,.a.,.a.,.X.X.<.,.X.d.D G n.X.7 & @ o o o o @   @ @ o o $ i F F o.H C o.X.D H H G G J J J K K K J J G D D S Z ",
"ZXZXZXZXZXCXSXSXZXZXZXZXZXZXZXCXCXCXCXNXzXMX1XG $ o   o @ @ o   % & & $ @ o $ 7 S >XNXNXMXvXzXMXvXcXMXMXMXMXMXMXjXaX2X>X^.H.S.D.",
"BXBXZXZXZXZXZXZXZXZXSXBXBXBXZXZXCXCXCXMXCXMXd.  # @ @ @ @             @ & % o o = F tXCXMXMXBXCXCXCXZXCXZXCXZXCXZXCXMXjX1X=X^.H.",
"H.H.J.'.;X=X=X=X-X=X;XJ.J.^.=X-XJ.'.;X^.2XF.7 @ @ o           o + o           % %   D '.H.H.;XS.H.H.H.H.S.S.S.S.D.V.z.k.f.a.K K ",
"l.l.M.D.S.F.J.=XkXkX4XH.J.3XyX-X;X;X;XH.<XM $ % + O O   O O + + X . + + X X   + % % # z.K.K.K.*XJ.H.J.H.J.H.H.H.H.S.H.S.D.D.S.D.",
"sXsXsXhXaXyXsXkXmXMXcXjXkXDXZXDXZXNXmXMXzXH % X . + + + + - 3 2 q q q 4 3 - + . X $ # A SXVXFXVXDXDXmXDXDXDXmXmXFXfX3X4X-X-X;X*X",
"tXtXyXsXyXtXsXhXaXaXjXcXzXgXaXjXgXpXaXvX[.l - - q w z T T R ~ %.$.$.%.#.~ T e q , >   $ 5XmXlXlXkXkXkXkXkXkXkXkXgX-X*XJ.H.S.D.z.",
"G.G.^.^.^.'.'.>X>X>X1XyX1X=X^.'.;X'.'.<X} + 3 z ^ ~ &.3.8.8.e.e.9.e.e.e.3.&.` ^ z - X + v hXmXmXkXkXkXjXkXlXgXgX4XJ.H.H.S.V.z.z.",
"Z.Z.F.F.Z.Z.Z.C.D.F.F.G.G.F.D.M.V.V.c.G.q X w ` _ &.:.0.0.0.>.>.0.0.0.9.9.8.&.` ~ 3 . > % <XzXhXzXkXkXjXjXgXgXaXh.K K K L G G D ",
"v.m.m.c.c.k.j.1.<.1.<.X...<...H S S N 2.8 - ^ %.&.;.:.>.>.>.>.>.q.q.0.q.0.9.8.3.$.e > X % g.s.s.X.K K K J J G D c j j j h f h y ",
"v.C.m.v.c.c.j.1.1.1...O.O.O.H S G H N ..q ; ~ ~ ' ' =.-.-.>.>.>.-.-.=.=.:.9.8.3.$.E 3 . 1 F d x c x x j x j h d h h h h f h s * ",
"Z.Z.Z.C.m.v.b.2.2.1.1.1.<... . .H  .S } 8 - { #._ &.9.0.0.>.q.q.q.q.q.0.9.8.&.$.%.E > 1 1 Z h D M M M M M M M c c x c x x M f & ",
"Z.Z.Z.Z.Z.v.b.v.c.2.2.2.1.......O.J O.} , > | #.$.w.e.y.L.y.u.y.y.y.I.L.y.t.w.$.| ! 2 $ 6 C A A M v M M M M v c c x x x v c u & ",
"!.!.!./.(.v.b.v.v.b.j.j.2.1.....X.J H ..k 8 | T T T I Q ' e.U.y.y.9.&._ ( ` %.{ 5.+.p $ t A A A Z S S S S S C C M M M c x f 8 1 ",
"bXbXbXbXqX!.Z.Z.C.v.c.c.k.2.1.1.s.o. ...k 2 n q q 0 4 r w Q 4.t._ R 0 : : 0 T z ! } p % h L P P C N N N N N M M M M M N S C h 6 ",
"dXdXdXiXOX!.Z.Z.v.b.c.c.k.2.1.1.o.X.o...k q ! e ^ ^ U U U T 4.L.3.( T 0 5 U ~ ~ ! 2.l & c K A A D D D D D S S S M x h M F Z d * ",
"!.!.!.!.!.(.Z.Z.Z.C.m.m.m.c.j.j.j.1.j.2.n z ! T U r : I R R _ e.&.( Q U 0 w T T 7.7.z , V o.F H D D D D D S Z Z D Z C Z D Z x s ",
"8XOX{.{.|.!.(.A.F.Z.C.C.m.c.j.j.j.1.2.+.! ! ^ e T I I / _ / &.y._ ( _ ( R R R T #.$.T k +.j.} [ O.K K J J H G G Z D J J G H s.l.",
"[.[.[.{.[.[.|.^.G.Z.C.m.N.c.j.j.1...1.| | 5.$.~ R / / ) W Y ) 0.) _ ' ' ( ( _ ( &.3.%.{ x.x.| [ H G G G D D Z Z Z D G G D G d.V.",
"0XtXuXuXtX0X<X<X<X>X'.'.'.^.^.G.G.A.A.5.| #.$.&.) =.] ] ] -.0.0.:.&.;.:.;.:.8.&.3.3.$.$.x.B.Z.Z.F.D.D.D.D.V.V.M.V.z.h.d.,.K L K ",
"=XjXCXCXZXCXCXCXCXCXCXCXCXCXCXCXNXbXNXZ.| %.3.:.:.] -.0.-.-.0.u.:.:.r.r.:.:.r.r.r.&.$.5.v.Z.bXNXCXZXZXZXZXZXZXZXZXgXs.D.d.D J G ",
"4XkXkX3X3X3X4X3X3X3X3X3X3X3X3X4X4X4X2X(.| { &.;.0.>.q.>.-.-.0.I.r.&.:.y.r.r.u.y.9.w.7.5.b.F.2X,X-X-X,X,X,X,X,X,X,X;XL D.h.G  .J ",
"mXZXmXkXkXkXkXkXkXkXkXkXkXkXkXlX3XpXtXuX5.~ %.&.:.r.r.>.=.;.r.W.I.&.:.I.I.y.r.e.w.P.#.| v.:XhX2XaXgXfXfXfXfXpXpXlXpXh.J.l.Z D C ",
"NXZXZXNXZXZXZXZXZXZXZXZXZXZXZXZXZXSXBXNX(.{ $.3.8.y.r.8.' / / 8.&.Q @.t.y.t.t.w.3.6.! | (.MXBXSXZXZXZXZXZXZXZXZXSXDXD.=Xz.D J G ",
"mXZXZXSXZXZXNXZXZXZXZXZXZXZXZXZXSXBXSXSX/.[ *.7.6.w.w.t.w./ U ` R Q &.t.6.w.P.6.$.| ! b.6XSXBXSXZXZXZXZXZXZXVXVXZXDXD.;Xl.Z G D ",
"NXZXZXZXZXZXZXZXZXZXZXZXZXZXZXZXSXnXSXBX0X+.+.| 5.~ ~ $.&.R I R w T ` %.~ #.6.7.5.| +.F.uXSXnXBXZXZXZXZXZXZXZXZXZXVXS.-Xz.C C M ",
"mXZXZXNXZXZXZXZXZXZXZXZXZXZXZXZXSXBXSXSXnX!.+.} | z w e w 4 4 5 4 4 0 w q z | 2.2...F.>XnXBXBXSXSXZXZXZXZXZXZXZXVXDXS.5XD.J  .J ",
"mXZXZXZXZXZXmXNXZXZXZXZXZXZXZXZXZXSXBXSXSXsXo.} [ q < 4 5 T ( @.&.R T e 4 q V } [ o.tXBXSXSXSXBXZXZXZXZXZXZXZXZXZXCXS.<XV.J K J ",
"NXZXZXZXZXZXZXZXZXZXZXZXZXZXZXZXZXVXZXZXDXCXk.v n z m E E R Q ( @.( ( #.{ n l l H k.hXZXZXVXZXBXZXZXSXZXZXZXZXZXZXZXD.2XV.X.X.H ",
"NXZXZXZXZXZXZXZXZXZXZXZXZXZXZXZXSXVXSXSXSXCXl.l k z { %.%.@.( @.( &.P.P.| z l v C z.MXZXSXSXSXSXSXZXZXZXZXZXCXVXCXZXV.1XM.O. .H ",
"NXZXZXZXZXZXZXZXZXZXZXZXZXZXZXSXSXVXSXSXCXCXM.l k k m { *.@.E w I @.6.6.! q q l N F.CXZXVXVXSXVXZXZXZXZXZXZXZXZXCXZXM.1XM. . .H ",
"NXZXZXZXZXZXZXZXZXZXZXZXZXZXZXSXSXVXVXCXCXMXC.n 2 3 < m *.x.*.{ @.6.x.%.m 2 < 2 H G.CXCXVXSXSXDXZXZXSXNXBXSXZXZXZXZXM.1XD.X.X.O.",
"NXZXZXZXZXZXZXZXZXZXZXZXZXZXZXZXCXNXNXvXxXuXZ.[ < 3 < q n { *.5.5.5.*.E 2 > 2 k +.Z.uXtXzXDXCXCXZXZXSXSXBXSXCXZXZXCXM.2XD.X.o.X.",
"NXZXZXZXZXZXZXZXZXZXZXZXZXZXZXCXNXbXvXdX0X(.B.+.k 2 > > 2 q k z z z k < - - k [ c.B.!.(.<X1XsXvXMXSXZXZXZXZXZXNXZXNXz.1XD. .o.o.",
"DXZXZXZXZXZXZXZXZXZXZXZXZXZXNXmXdXiXiXOX~.x.*.+.n 2 > > 2 8 8 8 8 9 2 < < 2 z [ x.B.(.Z././.^.<XsXjXzXmXNXZXZXZXZXNXz.2XD.X.<.<.",
"DXZXZXZXZXZXZXZXNXCXZXCXNXzXaXtX0X{.].~.R.{ %.*.! m 5 , - + > , , + + 2 z ! { | *.Z.XX~.6X|.!.[.'.=X>X<XyXjXMXCXCXBXM.yXF.X.s.s.",
"mXZXZXZXNXZXCXCXCXNXxXsXtX<X:X:X:X{.+X~.$._ &.&.( R e q q q q z z e z T ^ ^ { 7.6.R.XX~.XX{.|.|.|.{.:X}.[.>X0XtXvXCXV.1XV.d.h.X.",
"DXSXZXNXZXCXCXvXhXuX0X0X:X}.}.}.}.}.+XT.&.) =.=.) Q U e e e T ^ ^ Q Q Q ~ ` 4.6.4.Y. X~.OX|.{.{.].oXoX{.{.{.}.:X0XxXF.yXD.X.,.,.",
"mXNXZXCXCXCXvXsX0X:X[.}.:XOX6X6X}.8X+XY.&.) ) =.:.' / Q U T R ~ ` ` ` ` ` 4.6.t.4.).).~.OX/.}.{.].XXXX].{.{.[.[.[.:X^.tXF.J J d.",
"zXCXCXCXzXsXtX0X0X:X:X:X6X6X8X8X}.9X@XY.t.;.) =.9.9.' _ Q Q Q / ( &.&.4.3.w.t.6.6.#X~.~.OX/.OX{.].].].].{.{.{.{.:X:X:X<XJ.g.X.<.",
"vXNXNXxXtX:X:X:X8X:X}.6X6X+X6X8X}.9XXXT.L.e.=.) =.=.9.9.&.' ' &.&.8.e.t.t.t.t.6.Y.&XY.~.oX|.6X{.XX].`.].oX+XOXOX8X:X0X:X[.F.k.O.",
"NXxX0X:X:X:X8X6X6X}.}.OX6X+X+X+X6XOXXX).L.r.:.=.=.=.9.q.0.9.:.:.r.r.r.e.e.8.e.t.)..XR.`.XX{.6XOXOXXXXXXXoXOX+X6X}.8X:X:X0X:XF...",
"dX0X[.|.}.8X8X8X8XOXOX7X9X+X+X+X6X{.@X).L.y.r.=.=.=.p.q.q.0.0.0.y.0.0.r.e.8.t.U..XT.Y.+X].OX6X9XoXoXoXoXOX+X+X+XOXqX{.8XqX0X[.Z.",
"{.{.}.6X8X8X6X8X9XOX+X$X9X+XOXOX9X].+X XP.t.y.0.q.p.p.q.q.q.i.u.y.0.r.y.y.e.L.)..XR.T.rX].6X6XwX`.XXoX+X+X$X+X+X9XdX|.qX6X}.0X}.",
"|.].8XOXOX9X+X9XOXOXOX$X$X+XOX+XOXOX+X@XQ.t.e.y.i.q.q.q.i.i.i.i.u.y.y.y.e.e.U..X).~.).$XeX6XOX9X`.oX+X$X$X$X+XXX9XeX6XOXqXqX6X}.",
"/.XX7XOXOX$X+X9XoXOX$X$X$X+X+XOXOXOX+X@X).Y.y.y.y.i.i.u.u.u.u.u.u.u.y.e.t.U.Q.).~.).@X9XwX8X6X9X].oX+X$X$X$X+XoX9XeX6XOXqXqX6X6X",
"].oX+X+X+X+X$X$X`.OX9X$X%X$X$XOX@X+X+X+X@X XY.U.I.I.I.I.u.u.E.E.E.E.y.y.Y..X.X).~.XX9X9X9X9X9X6XXXoX$X$X9X9X6XoXwXwX6X6XwXwX6X8X",
"].+X+X+X+X@X$X+X`.$XeX$XOX9X9XOXXX7X7X+X+X@X).Y.E.E.E.E.E.E.E.W.U.y.L.Q..X.X@X+X~.+XrXeX7X9X9X+XXX+X9X9X9X9X8XOXwXwX6X6XwXqX8X8X",
"XX$X@X$X+X@X9XoX].$XeX%X+XeXeX+X@X7XrX7XOXoXXX).W.W.E.E.E.W.Q.W.U.U.Y..X#X XXX@X/.eXiXwX7X9XeXOXOX%X9X9X9X9X8XOXwXqXOX8XwXqX6X8X",
"~.rX@XrX+XXX9X].oX$X9X%X%XeX9X+X@X7XrX9XOX{.oX@X_.Q.W.U.U.U.U.L.Y. X#X.X XoXXX/.oXwXiXeX9XeX9X+X+X9X9X9X9X9X9X6XwX9X}.6XwX9X6XqX",
"~.rX@XrX9X`.$X~.9X%X+X8X9X9X9X8X@X7X9XwX8X}.oX+X#X_.).W.W.Y.Y.Y. X&X&XoXoX+XoX/.9XwXiXeX9X9X9X+X6X8XqX9X9XqX8X6XwX8X}.6XwX8X6XqX",
"~.rXXXrX9X/.+X~.rX+XOX8X9X9X8X8X@X@X7XwXwX%XoX$X#X#X_._._..X&X&X&X X`.oXoX].`.].wXwXwX9X9X9X+X+X8X9XqX9X9XqX8X8XwX8X}.6XwX8X:XqX"
};
