/* XPM */
static char *fdcd7f656b2244fcf7d04a1faf1c2c44aRmYWRfW2smWFqAY[] = {
/* columns rows colors chars-per-pixel */
"64 64 245 2 ",
"   c #190A08",
".  c #1C130C",
"X  c #1D1514",
"o  c #160A0B",
"O  c #260D08",
"+  c #34130D",
"@  c #231514",
"#  c #251B1A",
"$  c #2B1D1C",
"%  c #291914",
"&  c #361914",
"*  c #2A110B",
"=  c #2C241E",
"-  c #2C281F",
";  c #34221E",
":  c #2D2A23",
">  c #2E2826",
",  c #312422",
"<  c #332A24",
"1  c #362D29",
"2  c #392E2A",
"3  c #3B2724",
"4  c #363128",
"5  c #3B342D",
"6  c #3C382F",
"7  c #343027",
"8  c #3D3632",
"9  c #3D3A33",
"0  c #3F3C3A",
"q  c #2C1D20",
"w  c #5A2817",
"e  c #4B2719",
"r  c #64361C",
"t  c #55352A",
"y  c #423632",
"u  c #423B35",
"i  c #4C3B34",
"p  c #443D3A",
"a  c #4A3E3A",
"s  c #473635",
"d  c #553B38",
"f  c #4B2D26",
"g  c #6B392D",
"h  c #451410",
"j  c #3F4038",
"k  c #45423B",
"l  c #4A423D",
"z  c #48453B",
"x  c #57433B",
"c  c #6A443C",
"v  c #7B4738",
"b  c #764A33",
"n  c #4C4542",
"m  c #4C4A44",
"M  c #4B4A47",
"N  c #524544",
"B  c #524A45",
"V  c #534D4A",
"C  c #5A4D4D",
"Z  c #5A4645",
"A  c #4E514B",
"S  c #54524C",
"D  c #5A534C",
"F  c #565348",
"G  c #5C5553",
"H  c #5D5A54",
"J  c #575856",
"K  c #554F50",
"L  c #615754",
"P  c #625A54",
"I  c #645C5B",
"U  c #685E5D",
"Y  c #6A5454",
"T  c #6D534D",
"R  c #5F625C",
"E  c #64625C",
"W  c #6A625D",
"Q  c #6B685B",
"!  c #74665D",
"~  c #646363",
"^  c #6C6463",
"/  c #696669",
"(  c #6D6B6B",
")  c #686866",
"_  c #736A65",
"`  c #736C6B",
"'  c #756A66",
"]  c #6D726C",
"[  c #76716C",
"{  c #726F72",
"}  c #747472",
"|  c #7B7A75",
" . c #7C7C7B",
".. c #797776",
"X. c #6C7378",
"o. c #636063",
"O. c #85503D",
"+. c #875946",
"@. c #935D4C",
"#. c #9C5A49",
"$. c #845952",
"%. c #8F5349",
"&. c #A35D4C",
"*. c #886559",
"=. c #9C6253",
"-. c #97685A",
";. c #92644E",
":. c #A46B5C",
">. c #A96758",
",. c #B36D5B",
"<. c #AC715D",
"1. c #A3715E",
"2. c #B7735C",
"3. c #A8624E",
"4. c #8C6B65",
"5. c #986D63",
"6. c #9A746A",
"7. c #837C7A",
"8. c #9B7A71",
"9. c #8F7368",
"0. c #A86C63",
"q. c #B36E62",
"w. c #A47364",
"e. c #AC7463",
"r. c #A8776B",
"t. c #B37464",
"y. c #B97564",
"u. c #BB7B65",
"i. c #B47B6B",
"p. c #BC7C6A",
"a. c #B67768",
"s. c #A97D74",
"d. c #B77D72",
"f. c #C3795D",
"g. c #C17D6C",
"h. c #C37D65",
"j. c #C57E72",
"k. c #7C817C",
"l. c #85837E",
"z. c #9A8377",
"x. c #BC836C",
"c. c #B4826C",
"v. c #A98478",
"b. c #B48374",
"n. c #BD8373",
"m. c #B9887A",
"M. c #AD8E78",
"N. c #C38167",
"B. c #C3826D",
"V. c #C8866E",
"C. c #D4846D",
"Z. c #C38573",
"A. c #CB8574",
"S. c #C58A75",
"D. c #CB8B74",
"F. c #C48B7A",
"G. c #CB8C79",
"H. c #C68579",
"J. c #D28C7C",
"K. c #D58776",
"L. c #CC927B",
"P. c #D4947D",
"I. c #DC957F",
"U. c #7C7B81",
"Y. c #7D8587",
"T. c #898885",
"R. c #948D8B",
"E. c #978A85",
"W. c #97928D",
"Q. c #999795",
"!. c #8E9191",
"~. c #A88A83",
"^. c #B58C84",
"/. c #AA968C",
"(. c #B9988B",
"). c #A79995",
"_. c #B49D95",
"`. c #B79D97",
"'. c #9BA29C",
"]. c #A5A49D",
"[. c #BBA39B",
"{. c #B6A49B",
"}. c #BEA48D",
"|. c #9D9DA1",
" X c #A59EA2",
".X c #9EA3A4",
"XX c #ABACAC",
"oX c #A8A6A6",
"OX c #B7A9A7",
"+X c #ACB3AB",
"@X c #B3B2AD",
"#X c #BAB2AE",
"$X c #B2B2B3",
"%X c #BAB5B4",
"&X c #BBBBBA",
"*X c #B8B8B8",
"=X c #B0AFB1",
"-X c #C89786",
";X c #D99784",
":X c #C29D93",
">X c #CD8E85",
",X c #C3A59A",
"<X c #D1A292",
"1X c #C3BBBA",
"2X c #D9B8B2",
"3X c #C9AFA9",
"4X c #E09882",
"5X c #BCC4BB",
"6X c #C3C3BD",
"7X c #D7C6BF",
"8X c #BEBEC2",
"9X c #C3BEC2",
"0X c #BDC3C1",
"qX c #C4C3C2",
"wX c #CAC5C4",
"eX c #CDCBCA",
"rX c #C9C7C7",
"tX c #D4CDCB",
"yX c #D8CAC6",
"uX c #DBD3CE",
"iX c #D4D3CE",
"pX c #DDD4D1",
"aX c #DAD7D6",
"sX c #D0D1D0",
"dX c #E4DBD6",
"fX c #E4DDDC",
"gX c #E8D9D6",
"hX c #F6DDD8",
"jX c #EACFC8",
"kX c #F7E6DA",
"lX c #E9DEE1",
"zX c #EAE4E4",
"xX c #E8E6E7",
"cX c #F6EAE8",
"vX c #FAF2ED",
"bX c #F6EFF2",
"nX c #EFF1F0",
"mX c #F4F4F3",
"MX c #FDF5F4",
"NX c #FDFAF5",
"BX c #F5FDFD",
"VX c #FEFEFD",
"CX c #F8F8F9",
"ZX c #EDEDF4",
"AX c #DAE2E5",
/* pixels */
"mXmXVXCXnXCXVXxXVXmXnXmXCXVXCXnXnXCXVXlX .M G I I I I I ~ ~ ~ ~ I ~ ^ ~ ~ ~ U L U ^ ^ ^ _ ' ^ U / / / / / / / ~ / / / / / / / / ",
"$XXXoXoXoX*XqX*X*X=XXXXXXXXXoXQ.oX].XXQ.^ V C n G G G G I P L G ~ U I L I L V p C L I I I U U I ~ ~ ~ ~ ~ ~ ~ ~ ~ ~ ~ / / / / / ",
"qX6X$XXX&XsXiXiXaXaXiXiXeXrXqXqX%XXX%X1X%X6X6X#X#X#X#X@XOXoX].).).W.R.R.W.W.7.' T.R.W.R.T.T.T.T.T.7. .} { ( ( ( ~ ~ ~ ~ ~ ^ ^ / ",
"mXVXmXnXVXVXVXVXVXVXVXNXCXCXCXCXMXcXvXNXvXMXNXcXMXMXMXMXvXcXzXzXfXdXdXdXfXfXtX1XdXfXfXdXpXpXpXuXtXrX*XXXoXQ.!.R.T.T.T.7. . . . .",
"%XwXwX6XeXwX&X6XeXtXiXiXiXiXpXaXaXaXdXaXuXuXuXtXyXtXuXuXuXuXuXpXdXdXdXdXdXpXeX1XuXuXpXuXdXdXfXdXaXiXrX&X@XoXoXQ.!.W.W.R.R.T.T.T.",
"5 p p 0 u 9 8 0 0 p p k l l l l k k k l B S S S F D P P P P I W I W Q W W W I L ' [ ' ' [ 7.7.| 7...} ] ( ) ) ) ~ ~ ~ E ~ E ~ E ",
"u 5 9 9 5 5 u 8 5 5 5 8 8 9 u 9 k k 9 6 u u 6 6 5 6 u 5 2 1 2 5 4 5 y 5 u i a p 5 5 5 2 2 5 5 5 8 8 8 8 8 9 0 9 0 9 0 0 0 0 0 0 ",
"l 8 u l 9 u p 5 u u 9 u p p p p u l k u k u u l p l l p y y u a l l p u u l l p u l l l a l B F n m l l l z z l z z k k k p u u ",
"2 1 1 1 1 2 2 2 2 < < 1 5 1 2 5 4 4 4 4 4 4 5 u 4 5 5 2 5 y y 5 u u u u u y 4 < 4 5 u 5 < 5 u 4 9 9 6 6 5 5 5 5 9 9 6 5 5 5 5 5 ",
"< < < < < < < < 5 2 1 5 5 1 1 5 u 5 5 7 < < < < 2 4 5 y u a u 5 = = = = = < 1 4 < = = < = < < = = - - - : : : : < < : : - - - - ",
"8 8 8 8 8 8 8 8 u u u p p 8 8 u 5 8 u u u p p p u y 2 2 2 5 3 = @ . . o . % < 4 l y 8 p u u u 5 u 9 9 9 9 9 9 9 9 8 8 5 5 5 5 5 ",
"a l l l n l l l l n n m m n n n l n B l k p a a N u < $ $ ; $ % @ @ .   o . # < u u p p 8 8 u 8 k p p u u u u u p p p u u p p p ",
"8 8 8 0 p p p p p l n m n l a p l n l u u a N B n 8 , % = , , = # # # @ X . @ @ 1 u B n s p N n n n n n n n n n p p p p a l l l ",
"( ( / ^ ~ I G G H ~ / / ~ I I G D D V B C P G V s 2 , , , $ # @ # # $ $ # @ . . o $ u l p p n p u u u u u u u u l l l l l l n n ",
"VXVXCXmXnXxXfXaXaXxXnXnXxXxXzXfXfXdXuXtXtX%X7.V 2 , q $ $ @ . o @ @ # # # # X . # # n 7.R.R.R.R.T.T.7.7.[ _ ~ U D D C V V B B B ",
"VXVXVXVXVXVXCXCXzXmXVXVXVXVXVXVXVXVXVXVXVXtX` X > # @ @ @ @ @ % @ @ @ @ @ @ @ @ .   a ).aXfXfXxXfXaXeX&XoXQ.T.T.| ..} ` _ ( / / ",
"tXxXzXaXnXxXaXlXrXCXlXZXbXmXbXMXMXcXbXzXmX).0 X X # # % $ % % & + & + O O O O O %   $ C aXxXsXAXaXsXqX&XXX|.!.!. . .....} ` ( ( ",
"}  ...} } ^ { W. X&X*X$XoXoXoX).W.W.R.Q.W.A > # # , % O & t x c c c g t e e e e + + % $ /  .X.X.X.X.X./ / o.J J J J J J K K A M ",
"tXeXrXqX1XqXaXCXfXsXxXaXeXsXsXrX&XrX&X1X7.8 1 , % $ * + f T -.-.e.e.w.-.;.$.$.$.T c +   , ] !.Y.U.U.U.X.} ..X.( / ~ ~ ~ ~ ~ E I ",
"wXrXwX1XqXzXVXVXzXoXrXeX9XqXsXrXqXrXqXXXM # @ @ % * & t +.r.d.a.Z.G.G.F.m.b.r.w.5.$.f   . ` 6X0X&X8X*XoX|..XQ.!.!.!.!.!.!.W.W.W.",
"oXXXXXXX#XiXvXVXbXQ.oX@X=X@X1X1X&X$X*X..X , $ 3 & + e %.a.H.K.A.A.D.D.S.B.x.e.1.w.-.$.&   < oX5X&X&XXXQ.T.T.T.k...} ] ( [ ` ` _ ",
"W.W.W.).Q.).eXVXVXXXQ.).oXoX@X%X*X'.$XH o = O & t h g 0.H.A.K.K.C.C.V.N.N.B.x.c.n.r.6.t O . ].6X*XXXQ.T.k.k.k.|  .} ] ` ` ' ^ I ",
"T.l.l.R.R.l.OXNXVXpXW.T.T.R.R.W.!.k.Q.S % ; f c $.g O.a.j.j.K.K.C.C.C.V.D.D.D.Z.m.w.-.c & % Q.6X6X].T. .l.l. .| ] ) ^ ^ ^ Q P D ",
"E _ W E _ _ l.6XVXNX).7.[ [ _ ( ( ~ ( u % % T 8.s.@.:.H.Z.A.J.C.C.C.K.K.D.S.u.<.w.b.s.4.; .  .@X@Xk.J D E R D A S S S D L L C N ",
"D D F F F P Q [ vXVX1XG B V n l n n V l % f 4.5.r.+.@.O.=.S.x.L.I.K.4XI.>.O.%.v v $.s.9.3   p M m 9 9 j 9 9 j 9 9 4 5 u u y s y ",
"L L G D F D P W #XyXW.D n p u u m n B i % f 9.-.T r w w w r +.L.J.J.B.#.r r g r v g $.9.d . < p k 9 9 u 5 6 9 6 9 < 7 9 5 5 y y ",
"P P P G D F D D P _ G V n 8 l B l n N i + t 4.$.g v +.-.O.r b ;.n.G.p.@.O.%.-.0.-.$.$.4.x @ < l u u l z 6 9 u 6 9 : < 8 5 5 u s ",
"P P P L D D D D B D C G l 1 p l n l B i & t -.+.;.-.-.;.+.O.+.+.i.n.e.=.@.v v @.0.r.w.4.d % 2 n u i l l 6 u k 9 0 : > 8 9 8 u p ",
"W I P P L G G G G I L L a 8 N m V m x i & t 5.;.0.O.b w w O.+.;.i.H.e.@.@.b w g v :.r.5.d + f Z x i i i 5 u k 9 p : > 0 0 8 p p ",
"_ Q U P P P L G V C C C a p G G V l l i + e -.-.=.g O.v O.=.+.:.t.>Xi.@.-.:.=.:.%.=.e.r.g & d *.T x i i u i l p p : > 0 0 8 0 p ",
"' ^ W U I I L G L I C G n 1 p m m k F T f f -.0.0.#.>.>.>.0.>.t.e.n.e.@.:.e.e.u.j.p.a.t.v b 5.s.9.T i i a l l l l > > 0 n 0 0 p ",
"^ Q W W U U P G G G S I H 0 l D z z ! 8.T g :.q.,.g.y.q.t.p.p.:.t.u.e.i.n.p.y.D.A.g.y.t.#.r.-Xr.~.Y s i d a l p n 7 7 n M p p a ",
"' ' _ Q W I P H E E T.+X].+X5XoXW x ! *.e.>.3.,.2.f.N.A.A.j.t.,.p.S.p.<.p.P.P.D.P.J.y.>.>.0.d.>X~.! d i a n V m n 7 7 n V n a V ",
"' ' ' _ ^ W E E S ] Q.iXeX5XiX].` D *.5.q.>.3.f.f.f.N.V.S.B.p.q.G.L.x.<.u.P.P.D.B.G.Z.y.0.>.q.^.6.Y d Z C C G S A A A M n n n N ",
"' ' ' _ ^ E E E D | T.5X5XoXiX+X..L ! 6.:.>.&.,.f.f.N.V.S.B.q.>.>.y.t.<.g.P.P.G.Z.A.g.q.0.0.t.^.9.Y Z Z N n m n D ] } D n V C B ",
"` ` ' ^ ^ E E R E ) ~ k.] ] '.T.) C C 8.0.q.3.2.2.2.N.V.S.p.>.#.#.>.3.&.t.A.G.J.D.Z.y.:.0.0.0.s.Y N Z C V G H I J } ..H M G G B ",
"%X%X%X%X%X#X$X@X$XoXXXoX'.'..X'.Q.W.E.[.s.-.@.#.<.2.u.B.Z.p.,.&.t.y.>.&.>.u.Z.J.H.H.i.0.0.0.r.s.4.W ' W H E J S J R E S V S V a ",
"CXCXVXVXVXVXVXVXVXmXVXVXCXVXnXmXmXCXbXvX3Xs.w.:.t.t.t.u.u.u.y.y.g.Z.p.y.u.h.p.Z.n.F.d.w.r.s.(.2XhXiXrXR.( ..~ J J S V V S V N n ",
"XXXXXXXX=X$X$X$X&X$X*X$X$X&X*X0X*X8X9X1X[.8.s.-.e.e.t.<.<.,.,.,.>.y.y.p.g.p.y.p.n.m.s.r.v.(.3XyXtXqX*X} J } R A J S V S V B V D ",
"*X*X$X$X$X$X$X$XXX$XoXXXoXQ.XXXXoX.X|. X#X_.`.5.-.w.e.<.>.&.#.#.>.>.&.#.3.>.,.Z.d.s.s.~.,X,X_./.W.Q.XX} R T.) M A A S V n n C I ",
"VXVXVXVXVXVXVXVXCXCXCXCXCXCXCXCXBXZXBXCXcXvXkX3X5.5.:.t.:.#.3.2.A.g.p.y.,.>.<.p.r.b.8.2XhXkXgXzXxXnXmX=XJ '.~ M A M m B m B F I ",
"VXVXVXVXVXVXVXVXVXVXVXVXVXVXVXVXVXBXVXVXmXVXMXjX8.6.:.t.y.u.u.2.,.2.p.g.B.p.d.m.s.v.~.jXvXMXMXVXCXVXVX&X~ =X] A A A A m m M D W ",
"VXVXVXVXVXVXVXVXVXVXVXVXVXVXVXVXVXBXVXVXCXVXVXcXv.6.0.e.y.V.V.u.>.t.B.Z.G.G.H.d.s.v.[.cXNXVXVXVXVXVXVX0X] *X} M S A m m m m D W ",
"VXVXVXVXVXVXVXVXVXVXVXVXVXVXVXVXVXCXVXVXBXVXVXNX_.8.r.t.t.y.u.N.p.Z.Z.Z.Z.F.m.i.b.v.2XNXCXVXVXCXVXVXCX&X( *X} n V M m l z z D W ",
"VXVXVXVXVXVXVXVXVXVXVXVXVXVXVXVXVXCXVXVXVXCXVXNXyXs.w.i.y.y.u.D.B.S.S.Z.H.F.m.s.^.~.jXCXVXVXVXBXVXVXVXqX} &X..S S V m n l z D Q ",
"VXVXVXVXVXVXVXVXVXVXVXVXVXVXVXVXVXVXVXVXVXCXNXNXvXv.-.t.p.A.x.D.Z.S.S.S.F.F.d.r.v.v.gXCXVXVXBXBXCXVXVXqX{ 1X .H G D V B m B H Q ",
"VXVXVXVXVXVXVXVXVXVXVXVXVXVXVXVXNXVXVXCXCXCXCXNXMX8.-.:.t.A.u.x.x.x.x.n.n.i.w.0.v.~.gXMXVXBXBXBXCXVXVX9X` 1X7.G I G D S B F H Q ",
"VXVXVXVXVXVXVXVXVXVXVXVXVXVXVXVXCXVXVXCXBXCXVXNXvXz.5.:.>.p.u.x.t.<.<.t.e.:.w.r.^.^.hXMXVXBXBXBXVXVXVX1X` 1X7.G P G D F F F H Q ",
"VXVXVXVXVXVXVXVXVXVXVXVXVXVXVXVXMXVXVXVXBXBXVXNXkXz.v.1.=.=.=.>.#.=.=.=.:.e.s.m.(.~.gXMXVXVXBXBXVXVXVX%X` rX..I P D B B B F P Q ",
"VXVXVXVXVXVXVXVXVXVXVXVXVXVXVXVXVXVXVXVXBXVXVXNXkXz.v.r.e.:.>.>.e.a.p.a.i.n.m.^.^.~.gXNXVXmXBXVXVXVXVX%X` rX| I P D F F S D P Q ",
"VXVXVXVXVXVXVXVXVXVXVXVXVXVXVXVXVXVXCXVXVXVXVXNXkXv.b.c.c.<.:.<.a.Z.G.G.H.n.m.m.^.~.yXNXVXVXBXVXVXVXVX%X` rX| I P D S D D P E Q ",
"VXVXVXVXVXVXVXVXVXVXVXVXVXVXVXVXVXVXVXVXVXVXNXMXjXv.c.i.x.<.t.a.t.Z.G.G.n.n.m.m.^.^.3XNXVXVXCXVXVXVXVX$X` eX .I I H G H I P W ! ",
"VXVXVXVXVXVXVXVXVXVXVXVXVXVXVXVXVXVXVXVXVXVXCXNX2Xb.i.p.Z.t.p.p.y.x.G.S.Z.n.F.F.b.M.,XcXMXNXvXVXVXVXVX$X( eX .H I H H I I I W ! ",
"VXVXVXVXVXVXVXVXVXVXVXVXVXVXVXVXVXVXVXVXVXVXCXMX:Xi.x.B.D.u.x.u.p.Z.D.S.Z.Z.G.-Xm.v.v.jXNXNXVXNXVXVXVX$X( eXl.H E I I I U I W _ ",
"VXVXVXVXVXVXVXVXVXVXVXVXVXVXVXVXVXVXVXCXVXVXMXhXb.i.B.h.A.u.S.x.Z.D.G.D.Z.S.G.G.F.b.8.(.hXcXNXNXVXVXVX=X( eXl.H ^ E I I U U W ^ ",
"VXVXVXVXVXVXVXVXVXVXVXVXVXVXVXVXVXVXVXCXVXVXhX2Xi.p.B.2.N.u.G.S.L.P.P.L.G.G.F.S.b.m.v.6.~.~.gXNXVXVXVXXX( tXl.H / E I I U I W ^ ",
"VXVXVXVXVXVXVXVXVXVXVXVXVXVXCXCXVXVXCXVXVXzX`.^.i.p.g.h.h.N.D.L.P.;XP.P.;XP.D.G.-Xi.s.M.4.T ~.cXCXVXnX%X` pX .E E ^ ^ U I U ^ _ ",
"VXCXVXVXVXVXVXVXVXVXCXmXmXVXVXVXcXVXVXMXcX1X~.s.b.Z.V.h.h.N.J.;XG.P.P.P.;X;XG.L.x.m.m.r.4.9.~.OXuXNXVX%X/ fX..P U W U I I I ^ _ ",
"VXVXVXVXVXVXVXVXVXVXVXVXVXVXVXNXVXNXuX#XOX).~.(.s.n.A.V.g.N.G.;XP.;XP.P.;XP.G.G.S.-Xb.*.*.~._.~.).wXMXOX` fX[ G ^ W W U U U W W ",
"VXVXVXVXVXVXVXNXVXVXNXNXVXCXCXNXgX7X{.).OXOX/.v.r.c.D.D.V.B.G.;X;X;X;XP.;X;XG.G.>Xm.w.5.8./._._.E.).1X].E.yX[ P U I I U W W W Q ",
"VXVXNXNXNXVXVXNXMXNXVXVXCXMXfXuX_.[.[.OXOX{./.~.v.b.S.D.V.B.G.;X;X;X;XJ.;XJ.A.G.e.w.r.^.(./././._.).).{.).#Xz.' ! I L L L P W _ ",
"VXVXVXNXVXVXVXVXVXCXMXvXzXyX3X_.[.,X[._./.)._.}.M.b.x.x.y.y.H.;X;X;XJ.G.J.Z.p.p.<.i.m.(.}._././._.[./.{./._._.E.E.7.' W P D P _ ",
"VXVXVXVXVXVXVXvXVXcXyX#XOX{.OXOX,X:X[.{.{.{.{.M.(.m.n.x.u.y.j.;X;X;XJ.A.A.B.y.u.F.-X:X(.(.[.[.{._._.`._._._.OX{.{.).W.T.[ I P Q ",
"CXNXVXVXVXNXcXfX#XOXOXOXOXOXOX`.:X:X,X[.{.OX{./.}.-XL.L.G.p.j.J.A.J.A.H.J.G.Z.F.-X<X<X(.(.,X3X[.3X/.[.`.`._./.{./.).{.{.W.[ W Q "
};
